<svg width="28" height="28" viewBox="0 0 28 28" fill="none" xmlns="http://www.w3.org/2000/svg">
<path fill-rule="evenodd" clip-rule="evenodd" d="M2.32031 8.13477V5.21484C2.32031 3.61879 3.61881 2.32031 5.21484 2.32031H8.13477C8.49935 2.32031 8.79492 2.02474 8.79492 1.66016C8.79492 1.29557 8.49935 1 8.13477 1H5.21484C2.89079 1 1 2.89076 1 5.21484V8.13477C1 8.49935 1.29557 8.79492 1.66016 8.79492C2.02474 8.79492 2.32031 8.49935 2.32031 8.13477ZM8.13477 25.6797C8.49935 25.6797 8.79492 25.9753 8.79492 26.3398C8.79492 26.7044 8.49935 27 8.13477 27H5.21484C2.89079 27 1 25.1092 1 22.7852V19.8652C1 19.5007 1.29557 19.2051 1.66016 19.2051C2.02474 19.2051 2.32031 19.5007 2.32031 19.8652V22.7852C2.32031 24.3812 3.61881 25.6797 5.21484 25.6797H8.13477ZM27 19.8652V22.7852C27 25.1092 25.1092 27 22.7852 27H19.8652C19.5007 27 19.2051 26.7044 19.2051 26.3398C19.2051 25.9753 19.5007 25.6797 19.8652 25.6797H22.7852C24.3812 25.6797 25.6797 24.3812 25.6797 22.7852V19.8652C25.6797 19.5007 25.9753 19.2051 26.3398 19.2051C26.7044 19.2051 27 19.5007 27 19.8652ZM27 5.21484V8.13477C27 8.49935 26.7044 8.79492 26.3398 8.79492C25.9753 8.79492 25.6797 8.49935 25.6797 8.13477V5.21484C25.6797 3.61879 24.3812 2.32031 22.7852 2.32031H19.8652C19.5007 2.32031 19.2051 2.02474 19.2051 1.66016C19.2051 1.29557 19.5007 1 19.8652 1H22.7852C25.1092 1 27 2.89076 27 5.21484ZM18.5558 20.2165C18.834 19.9596 18.8512 19.5259 18.5943 19.2477C18.3373 18.9696 17.9036 18.9524 17.6255 19.2093C16.6358 20.1235 15.3483 20.6269 14 20.6269C12.6518 20.6269 11.3642 20.1235 10.3745 19.2093C10.0964 18.9524 9.66272 18.9696 9.40579 19.2477C9.14889 19.5259 9.16608 19.9596 9.44421 20.2165C10.688 21.3653 12.3059 21.998 14 21.998C15.6942 21.998 17.3121 21.3653 18.5558 20.2165ZM15.3711 10.8008V15.6758C15.3711 16.6418 14.5852 17.4277 13.6191 17.4277H13.0605C12.6819 17.4277 12.375 17.1208 12.375 16.7422C12.375 16.3636 12.6819 16.0566 13.0605 16.0566H13.6191C13.8291 16.0566 14 15.8858 14 15.6758V10.8008C14 10.4222 14.3069 10.1152 14.6855 10.1152C15.0642 10.1152 15.3711 10.4222 15.3711 10.8008ZM20.0938 12.7178V10.7627C20.0938 10.4051 19.8039 10.1152 19.4463 10.1152C19.0887 10.1152 18.7988 10.4051 18.7988 10.7627V12.7178C18.7988 13.0753 19.0887 13.3652 19.4463 13.3652C19.8039 13.3652 20.0938 13.0753 20.0938 12.7178ZM8.05859 12.7178C8.05859 13.0753 8.34848 13.3652 8.70605 13.3652C9.06363 13.3652 9.35352 13.0753 9.35352 12.7178V10.7627C9.35352 10.4051 9.06363 10.1152 8.70605 10.1152C8.34848 10.1152 8.05859 10.4051 8.05859 10.7627V12.7178Z" fill="#85CC07"/>
<path d="M18.5943 19.2477L18.8881 18.9763L18.8881 18.9763L18.5943 19.2477ZM18.5558 20.2165L18.8272 20.5103L18.8272 20.5103L18.5558 20.2165ZM17.6255 19.2093L17.3541 18.9154L17.3541 18.9155L17.6255 19.2093ZM10.3745 19.2093L10.646 18.9155L10.6459 18.9154L10.3745 19.2093ZM9.40579 19.2477L9.11198 18.9763L9.11196 18.9763L9.40579 19.2477ZM9.44421 20.2165L9.1728 20.5103L9.1728 20.5103L9.44421 20.2165ZM1.92031 5.21484V8.13477H2.72031V5.21484H1.92031ZM5.21484 1.92031C3.3979 1.92031 1.92031 3.39787 1.92031 5.21484H2.72031C2.72031 3.83971 3.83973 2.72031 5.21484 2.72031V1.92031ZM8.13477 1.92031H5.21484V2.72031H8.13477V1.92031ZM8.39492 1.66016C8.39492 1.80383 8.27844 1.92031 8.13477 1.92031V2.72031C8.72026 2.72031 9.19492 2.24565 9.19492 1.66016H8.39492ZM8.13477 1.4C8.27844 1.4 8.39492 1.51649 8.39492 1.66016H9.19492C9.19492 1.07466 8.72026 0.6 8.13477 0.6V1.4ZM5.21484 1.4H8.13477V0.6H5.21484V1.4ZM1.4 5.21484C1.4 3.11168 3.1117 1.4 5.21484 1.4V0.6C2.66988 0.6 0.6 2.66985 0.6 5.21484H1.4ZM1.4 8.13477V5.21484H0.6V8.13477H1.4ZM1.66016 8.39492C1.51649 8.39492 1.4 8.27844 1.4 8.13477H0.6C0.6 8.72026 1.07466 9.19492 1.66016 9.19492V8.39492ZM1.92031 8.13477C1.92031 8.27844 1.80383 8.39492 1.66016 8.39492V9.19492C2.24565 9.19492 2.72031 8.72026 2.72031 8.13477H1.92031ZM9.19492 26.3398C9.19492 25.7543 8.72026 25.2797 8.13477 25.2797V26.0797C8.27844 26.0797 8.39492 26.1962 8.39492 26.3398H9.19492ZM8.13477 27.4C8.72026 27.4 9.19492 26.9253 9.19492 26.3398H8.39492C8.39492 26.4835 8.27844 26.6 8.13477 26.6V27.4ZM5.21484 27.4H8.13477V26.6H5.21484V27.4ZM0.6 22.7852C0.6 25.3301 2.66988 27.4 5.21484 27.4V26.6C3.1117 26.6 1.4 24.8883 1.4 22.7852H0.6ZM0.6 19.8652V22.7852H1.4V19.8652H0.6ZM1.66016 18.8051C1.07466 18.8051 0.6 19.2797 0.6 19.8652H1.4C1.4 19.7216 1.51649 19.6051 1.66016 19.6051V18.8051ZM2.72031 19.8652C2.72031 19.2797 2.24565 18.8051 1.66016 18.8051V19.6051C1.80383 19.6051 1.92031 19.7216 1.92031 19.8652H2.72031ZM2.72031 22.7852V19.8652H1.92031V22.7852H2.72031ZM5.21484 25.2797C3.83973 25.2797 2.72031 24.1603 2.72031 22.7852H1.92031C1.92031 24.6021 3.3979 26.0797 5.21484 26.0797V25.2797ZM8.13477 25.2797H5.21484V26.0797H8.13477V25.2797ZM27.4 22.7852V19.8652H26.6V22.7852H27.4ZM22.7852 27.4C25.3301 27.4 27.4 25.3301 27.4 22.7852H26.6C26.6 24.8883 24.8883 26.6 22.7852 26.6V27.4ZM19.8652 27.4H22.7852V26.6H19.8652V27.4ZM18.8051 26.3398C18.8051 26.9253 19.2797 27.4 19.8652 27.4V26.6C19.7216 26.6 19.6051 26.4835 19.6051 26.3398H18.8051ZM19.8652 25.2797C19.2797 25.2797 18.8051 25.7543 18.8051 26.3398H19.6051C19.6051 26.1962 19.7216 26.0797 19.8652 26.0797V25.2797ZM22.7852 25.2797H19.8652V26.0797H22.7852V25.2797ZM25.2797 22.7852C25.2797 24.1603 24.1603 25.2797 22.7852 25.2797V26.0797C24.6021 26.0797 26.0797 24.6021 26.0797 22.7852H25.2797ZM25.2797 19.8652V22.7852H26.0797V19.8652H25.2797ZM26.3398 18.8051C25.7543 18.8051 25.2797 19.2797 25.2797 19.8652H26.0797C26.0797 19.7216 26.1962 19.6051 26.3398 19.6051V18.8051ZM27.4 19.8652C27.4 19.2797 26.9253 18.8051 26.3398 18.8051V19.6051C26.4835 19.6051 26.6 19.7216 26.6 19.8652H27.4ZM27.4 8.13477V5.21484H26.6V8.13477H27.4ZM26.3398 9.19492C26.9253 9.19492 27.4 8.72026 27.4 8.13477H26.6C26.6 8.27844 26.4835 8.39492 26.3398 8.39492V9.19492ZM25.2797 8.13477C25.2797 8.72026 25.7543 9.19492 26.3398 9.19492V8.39492C26.1962 8.39492 26.0797 8.27844 26.0797 8.13477H25.2797ZM25.2797 5.21484V8.13477H26.0797V5.21484H25.2797ZM22.7852 2.72031C24.1603 2.72031 25.2797 3.83971 25.2797 5.21484H26.0797C26.0797 3.39787 24.6021 1.92031 22.7852 1.92031V2.72031ZM19.8652 2.72031H22.7852V1.92031H19.8652V2.72031ZM18.8051 1.66016C18.8051 2.24565 19.2797 2.72031 19.8652 2.72031V1.92031C19.7216 1.92031 19.6051 1.80383 19.6051 1.66016H18.8051ZM19.8652 0.6C19.2797 0.6 18.8051 1.07466 18.8051 1.66016H19.6051C19.6051 1.51649 19.7216 1.4 19.8652 1.4V0.6ZM22.7852 0.6H19.8652V1.4H22.7852V0.6ZM27.4 5.21484C27.4 2.66985 25.3301 0.6 22.7852 0.6V1.4C24.8883 1.4 26.6 3.11168 26.6 5.21484H27.4ZM18.3004 19.5191C18.4074 19.635 18.4003 19.8157 18.2844 19.9227L18.8272 20.5103C19.2677 20.1035 19.2949 19.4167 18.8881 18.9763L18.3004 19.5191ZM17.8969 19.5031C18.0128 19.3961 18.1934 19.4033 18.3004 19.5192L18.8881 18.9763C18.4813 18.5359 17.7945 18.5087 17.3541 18.9154L17.8969 19.5031ZM14 21.0269C15.4488 21.0269 16.8333 20.4856 17.8969 19.5031L17.3541 18.9155C16.4384 19.7613 15.2478 20.2269 14 20.2269V21.0269ZM10.1031 19.5031C11.1667 20.4856 12.5512 21.0269 14 21.0269V20.2269C12.7523 20.2269 11.5616 19.7613 10.646 18.9155L10.1031 19.5031ZM9.6996 19.5192C9.80664 19.4033 9.98727 19.3961 10.1032 19.5032L10.6459 18.9154C10.2055 18.5087 9.5188 18.5359 9.11198 18.9763L9.6996 19.5192ZM9.71562 19.9227C9.59978 19.8157 9.5926 19.635 9.69962 19.5191L9.11196 18.9763C8.70517 19.4167 8.73238 20.1035 9.1728 20.5103L9.71562 19.9227ZM14 21.598C12.4064 21.598 10.8854 21.0032 9.71561 19.9227L9.1728 20.5103C10.4905 21.7274 12.2053 22.398 14 22.398V21.598ZM18.2844 19.9227C17.1146 21.0032 15.5936 21.598 14 21.598V22.398C15.7947 22.398 17.5095 21.7274 18.8272 20.5103L18.2844 19.9227ZM15.7711 15.6758V10.8008H14.9711V15.6758H15.7711ZM13.6191 17.8277C14.8061 17.8277 15.7711 16.8627 15.7711 15.6758H14.9711C14.9711 16.4209 14.3643 17.0277 13.6191 17.0277V17.8277ZM13.0605 17.8277H13.6191V17.0277H13.0605V17.8277ZM11.975 16.7422C11.975 17.3417 12.461 17.8277 13.0605 17.8277V17.0277C12.9028 17.0277 12.775 16.8999 12.775 16.7422H11.975ZM13.0605 15.6566C12.461 15.6566 11.975 16.1426 11.975 16.7422H12.775C12.775 16.5845 12.9028 16.4566 13.0605 16.4566V15.6566ZM13.6191 15.6566H13.0605V16.4566H13.6191V15.6566ZM13.6 15.6758C13.6 15.6736 13.6005 15.6707 13.6017 15.6678C13.6028 15.6653 13.6042 15.6634 13.6055 15.6621C13.6068 15.6608 13.6087 15.6594 13.6112 15.6584C13.614 15.6572 13.617 15.6566 13.6191 15.6566V16.4566C14.0501 16.4566 14.4 16.1067 14.4 15.6758H13.6ZM13.6 10.8008V15.6758H14.4V10.8008H13.6ZM14.6855 9.71523C14.086 9.71523 13.6 10.2012 13.6 10.8008H14.4C14.4 10.6431 14.5278 10.5152 14.6855 10.5152V9.71523ZM15.7711 10.8008C15.7711 10.2012 15.2851 9.71523 14.6855 9.71523V10.5152C14.8433 10.5152 14.9711 10.6431 14.9711 10.8008H15.7711ZM19.6938 10.7627V12.7178H20.4937V10.7627H19.6938ZM19.4463 10.5152C19.583 10.5152 19.6938 10.626 19.6938 10.7627H20.4937C20.4937 10.1842 20.0248 9.71523 19.4463 9.71523V10.5152ZM19.1988 10.7627C19.1988 10.626 19.3096 10.5152 19.4463 10.5152V9.71523C18.8678 9.71523 18.3988 10.1842 18.3988 10.7627H19.1988ZM19.1988 12.7178V10.7627H18.3988V12.7178H19.1988ZM19.4463 12.9652C19.3096 12.9652 19.1988 12.8544 19.1988 12.7178H18.3988C18.3988 13.2963 18.8678 13.7652 19.4463 13.7652V12.9652ZM19.6938 12.7178C19.6938 12.8544 19.583 12.9652 19.4463 12.9652V13.7652C20.0248 13.7652 20.4937 13.2963 20.4937 12.7178H19.6938ZM8.70605 12.9652C8.56939 12.9652 8.45859 12.8544 8.45859 12.7178H7.65859C7.65859 13.2963 8.12756 13.7652 8.70605 13.7652V12.9652ZM8.95352 12.7178C8.95352 12.8544 8.84272 12.9652 8.70605 12.9652V13.7652C9.28454 13.7652 9.75352 13.2963 9.75352 12.7178H8.95352ZM8.95352 10.7627V12.7178H9.75352V10.7627H8.95352ZM8.70605 10.5152C8.84272 10.5152 8.95352 10.626 8.95352 10.7627H9.75352C9.75352 10.1842 9.28454 9.71523 8.70605 9.71523V10.5152ZM8.45859 10.7627C8.45859 10.626 8.56939 10.5152 8.70605 10.5152V9.71523C8.12756 9.71523 7.65859 10.1842 7.65859 10.7627H8.45859ZM8.45859 12.7178V10.7627H7.65859V12.7178H8.45859Z" fill="#85CC07"/>
</svg>
